<svg width="116" height="37" viewBox="0 0 2176 685" fill="none" xmlns="http://www.w3.org/2000/svg">
<path d="M435.808 191.107C430.596 164.475 421.555 140.081 408.683 117.604C387.834 80.3202 358.05 51.5583 319.118 30.9989C280.504 10.4395 235.296 0 183.599 0H0V387.966H119.35V102.264H176.047C221.255 102.264 256.571 114.834 281.675 140.081C306.566 165.328 319.224 200.374 319.224 245.861C319.224 291.347 306.672 325.968 281.675 350.575C256.464 375.502 221.149 387.859 176.047 387.859H119.35V491.508H183.705C234.871 491.508 280.079 481.069 318.692 460.51C357.837 439.95 387.941 411.188 408.79 373.904C412.938 366.767 416.449 359.63 419.746 351.96V351.641C434 319.789 441.127 284.423 441.127 245.861C441.127 226.686 439.531 208.257 435.915 191L435.808 191.107Z" fill="#7352F8"/>
<path d="M706.314 100.88V156.273C695.039 137.95 678.976 123.356 657.808 112.171C637.597 100.88 613.451 95.4468 585.794 95.4468C553.776 95.4468 524.736 103.436 498.462 119.841C472.401 136.246 451.658 159.575 436.34 189.722C436.021 190.254 435.809 190.574 435.809 191.107C421.342 221.253 413.896 255.768 413.896 295.608C413.896 315.635 415.81 334.277 419.64 351.854V352.173C423.15 369.963 428.894 386.474 436.34 402.027C451.658 432.174 472.507 455.716 498.462 472.76C524.736 488.952 553.776 497.154 585.794 497.154C613.451 497.154 637.491 491.722 657.808 480.43C678.338 468.606 694.507 453.799 706.314 435.476V490.869C706.314 522.081 698.655 544.878 683.869 558.833C669.403 573.107 649.937 580.457 625.045 580.457C604.835 580.457 587.496 576.09 573.561 567.035C559.307 558.833 550.585 547.008 546.968 532.201H428.682C433.894 578.859 454.424 615.504 490.271 642.668C526.119 670.045 572.923 684.107 630.683 684.107C673.977 684.107 710.037 675.372 739.077 658.008C768.329 640.751 790.029 617.422 803.964 588.127C818.431 559.046 825.558 526.662 825.558 490.763V100.88H706.208H706.314ZM681.104 366.874C664.722 384.131 644.724 392.972 620.897 392.972C597.069 392.972 576.859 384.237 560.158 366.874C543.777 349.084 535.799 325.435 535.799 295.608C535.799 265.781 543.777 242.452 560.158 225.408C576.859 208.364 597.069 199.629 620.897 199.629C644.724 199.629 664.722 208.364 681.104 225.408C697.804 242.665 706.314 266.207 706.314 296.141C706.314 326.074 697.804 349.617 681.104 366.874Z" fill="#7352F8"/>
<path d="M1059.68 389.99V491.509H998.838C955.545 491.509 921.718 480.962 897.465 459.977C873.212 438.565 861.086 403.732 861.086 355.689V200.268H813.537V100.88H861.086V5.75244H980.649V100.986H1058.94V200.374H980.649V357.18C980.649 368.898 983.414 377.207 989.052 382.426C994.69 387.646 1003.94 390.096 1017.03 390.096H1059.68V389.99Z" fill="#7352F8"/>
<path d="M1296.04 96.7252C1340.72 96.7252 1376.67 111.639 1403.69 141.466C1430.71 170.867 1444.22 211.453 1444.22 263.224V491.402H1325.4V279.31C1325.4 253.211 1318.59 232.865 1305.09 218.377C1291.58 203.89 1273.39 196.646 1250.62 196.646C1227.86 196.646 1209.67 203.89 1196.16 218.377C1182.65 232.865 1175.84 253.105 1175.84 279.31V491.402H1056.28V5.75244H1175.84V153.397C1187.97 136.14 1204.46 122.398 1225.41 112.065C1246.37 101.838 1269.88 96.6187 1296.04 96.6187V96.7252Z" fill="#7352F8"/>
<path d="M1842.48 100.88V491.402H1722.92V438.246C1710.79 455.503 1694.3 469.458 1673.35 480.217C1652.82 490.443 1630.05 495.663 1604.84 495.663C1575.06 495.663 1548.68 489.165 1525.91 476.062C1503.04 462.534 1485.39 443.146 1472.83 418.006C1460.28 392.759 1454.01 363.145 1454.01 329.164V100.88H1572.82V312.972C1572.82 339.071 1579.63 359.417 1593.14 373.904C1606.65 388.392 1624.84 395.636 1647.6 395.636C1670.37 395.636 1689.3 388.392 1702.81 373.904C1716.32 359.417 1723.13 339.177 1723.13 312.972V100.88H1842.69H1842.48Z" fill="#7352F8"/>
<path d="M2017.04 497.048C1983 497.048 1952.79 491.189 1926.19 479.578C1899.6 467.966 1878.65 452.094 1863.33 431.961C1847.9 411.401 1839.29 388.605 1837.48 363.358H1955.55C1956.94 376.887 1963.21 387.859 1974.38 396.275C1985.55 404.69 1999.27 408.845 2015.65 408.845C2030.55 408.845 2041.93 406.075 2049.91 400.429C2058.31 394.357 2062.46 386.687 2062.46 377.313C2062.46 366.128 2056.61 357.926 2045.01 352.812C2033.31 347.166 2014.48 341.095 1988.42 334.596C1960.45 328.098 1937.15 321.281 1918.54 314.25C1899.92 306.793 1883.86 295.395 1870.35 279.949C1856.84 264.077 1850.03 242.878 1850.03 216.247C1850.03 193.876 1856.09 173.53 1868.22 155.314C1880.77 136.672 1898.96 121.972 1922.68 111.213C1946.94 100.453 1975.55 95.1272 2008.63 95.1272C2057.56 95.1272 2095.96 107.271 2123.94 131.559C2152.34 155.847 2168.62 188.017 2172.87 228.178H2062.46C2060.54 214.649 2054.59 203.89 2044.27 196.007C2034.48 188.124 2021.4 184.076 2005.12 184.076C1991.19 184.076 1980.44 186.846 1973 192.491C1965.55 197.605 1961.83 204.848 1961.83 214.223C1961.83 225.408 1967.68 233.823 1979.27 239.469C1991.4 245.115 2010.02 250.654 2035.23 256.3C2064.16 263.757 2087.67 271.214 2105.86 278.671C2124.05 285.701 2139.9 297.313 2153.41 313.717C2167.34 329.59 2174.57 351.001 2175.11 378.059C2175.11 400.962 2168.62 421.415 2155.53 439.631C2142.98 457.314 2124.58 471.375 2100.33 481.602C2076.61 491.828 2048.84 497.048 2017.14 497.048H2017.04Z" fill="#7352F8"/>
<path d="M965.118 637.235H917.57L908.422 662.056H897.359L935.44 558.833H947.248L985.223 662.056H974.16L965.012 637.235H965.118ZM962.034 628.607L941.397 572.042L920.761 628.607H962.034Z" fill="#7352F8"/>
<path d="M1093.62 582.055C1098.08 573.959 1104.25 567.568 1112.02 563.094C1119.78 558.513 1128.4 556.276 1137.97 556.276C1149.57 556.276 1159.57 559.046 1167.97 564.585C1176.27 570.124 1182.33 577.901 1186.16 588.02H1173.93C1170.95 580.99 1166.38 575.45 1160.21 571.402C1154.04 567.461 1146.7 565.437 1138.08 565.437C1130.42 565.437 1123.51 567.248 1117.34 570.87C1111.17 574.492 1106.38 579.605 1102.98 586.316C1099.47 593.027 1097.76 600.804 1097.76 609.752C1097.76 618.7 1099.47 626.37 1102.98 633.081C1106.49 639.792 1111.27 644.905 1117.34 648.527C1123.51 652.149 1130.31 653.96 1138.08 653.96C1146.7 653.96 1154.14 652.042 1160.21 648.101C1166.38 644.159 1170.84 638.727 1173.93 631.696H1186.16C1182.33 641.709 1176.27 649.379 1167.97 654.918C1159.57 660.351 1149.67 663.121 1138.08 663.121C1128.51 663.121 1119.89 660.884 1112.13 656.303C1104.36 651.723 1098.19 645.438 1093.72 637.342C1089.26 629.246 1087.02 620.085 1087.02 609.858C1087.02 599.632 1089.26 590.364 1093.72 582.268L1093.62 582.055Z" fill="#7352F8"/>
<path d="M1356.99 637.235H1309.45L1300.3 662.056H1289.24L1327.32 558.833H1339.12L1377.1 662.056H1366.04L1356.89 637.235H1356.99ZM1353.91 628.607L1333.27 572.042L1312.64 628.607H1353.91Z" fill="#7352F8"/>
<path d="M1544.1 563.733C1552.4 567.887 1558.68 573.959 1563.04 581.842C1567.4 589.725 1569.63 599.099 1569.63 609.965C1569.63 620.83 1567.4 629.992 1563.04 637.874C1558.68 645.757 1552.3 651.723 1544.1 655.877C1535.81 660.032 1525.91 662.056 1514.43 662.056H1483.47V557.554H1514.43C1526.02 557.554 1535.91 559.685 1544.1 563.839V563.733ZM1547.61 641.922C1555.27 634.253 1559 623.6 1559 609.965C1559 596.329 1555.17 585.464 1547.61 577.688C1539.96 569.911 1528.89 566.076 1514.43 566.076H1494V653.321H1514.43C1529 653.321 1540.06 649.486 1547.61 641.922Z" fill="#7352F8"/>
<path d="M1688.98 565.97V604.958H1728.55V613.586H1688.98V653.214H1733.02V661.842H1678.45V557.128H1733.02V565.757H1688.98V565.97Z" fill="#7352F8"/>
<path d="M1945.34 558.833V662.056H1934.92V579.605L1898.22 662.056H1890.56L1853.86 579.925V662.056H1843.44V558.833H1854.5L1894.39 648.314L1934.28 558.833H1945.45H1945.34Z" fill="#7352F8"/>
<path d="M2127.66 557.448L2094.16 621.363V662.056H2083.73V621.363L2050.01 557.448H2061.82L2089.05 611.776L2116.07 557.448H2127.66Z" fill="#7352F8"/>
</svg>
